<?xml version="1.0" encoding="utf-8"?>
<!-- Generator: Adobe Illustrator 24.0.1, SVG Export Plug-In . SVG Version: 6.00 Build 0)  -->
<svg version="1.1" id="Camada_1" xmlns="http://www.w3.org/2000/svg" xmlns:xlink="http://www.w3.org/1999/xlink" x="0px" y="0px"
	 viewBox="0 0 800 800" style="enable-background:new 0 0 800 800;" xml:space="preserve">
<style type="text/css">
	.st0{clip-path:url(#SVGID_2_);}
	.st1{fill-rule:evenodd;clip-rule:evenodd;fill:#FFFFFF;}
</style>
<g>
	<defs>
		<rect id="SVGID_1_" width="800" height="800"/>
	</defs>
	<clipPath id="SVGID_2_">
		<use xlink:href="#SVGID_1_"  style="overflow:visible;"/>
	</clipPath>
	<g class="st0">
		<path class="st1" d="M507.9,446.2c-5.9-2.9-34.8-17.2-40.2-19.2c-5.4-2-9.3-2.9-13.2,2.9c-3.9,5.9-15.2,19.2-18.6,23.1
			c-3.4,3.9-6.9,4.4-12.8,1.5c-5.9-2.9-24.9-9.2-47.3-29.2c-17.5-15.6-29.3-34.9-32.8-40.8c-3.4-5.9-0.4-9.1,2.6-12
			c2.6-2.6,5.9-6.9,8.8-10.3c2.9-3.4,3.9-5.9,5.9-9.8c2-3.9,1-7.4-0.5-10.3c-1.5-2.9-13.2-31.9-18.2-43.7
			c-4.8-11.5-9.6-9.9-13.2-10.1c-3.4-0.2-7.4-0.2-11.3-0.2c-3.9,0-10.3,1.5-15.7,7.4c-5.4,5.9-20.6,20.1-20.6,49.1
			c0,29,21.1,57,24,60.9c2.9,3.9,41.5,63.4,100.6,88.9c14,6.1,25,9.7,33.6,12.4c14.1,4.5,26.9,3.8,37.1,2.3
			c11.3-1.7,34.8-14.2,39.7-28c4.9-13.8,4.9-25.5,3.4-28C517.7,450.6,513.8,449.1,507.9,446.2z M400.5,592.9L400.5,592.9
			c-35.2,0-69.7-9.5-99.8-27.3l-7.2-4.2l-74.1,19.4l19.8-72.3l-4.7-7.4c-19.6-31.2-30-67.2-29.9-104.2c0-108,87.9-195.8,195.9-195.8
			c52.3,0,101.5,20.4,138.5,57.4c37,37,57.3,86.2,57.3,138.6C596.3,505,508.4,592.9,400.5,592.9z M567.2,230.3
			c-44.5-44.5-103.7-69.1-166.7-69.1c-129.9,0-235.6,105.7-235.6,235.6c0,41.5,10.8,82.1,31.5,117.8l-33.4,122.1L287.8,604
			c34.4,18.8,73.2,28.7,112.6,28.7h0.1h0c129.9,0,235.6-105.7,235.6-235.6C636.1,334.1,611.7,274.9,567.2,230.3"/>
	</g>
</g>
</svg>
